<?xml version="1.0" encoding="UTF-8"?>
<svg xmlns="http://www.w3.org/2000/svg" xmlns:xlink="http://www.w3.org/1999/xlink" width="1080" zoomAndPan="magnify" viewBox="0 0 810 809.999993" height="1080" preserveAspectRatio="xMidYMid meet" version="1.0">
  <defs>
    <g></g>
    <clipPath id="0f9437502f">
      <path d="M 81 81 L 729 81 L 729 729 L 81 729 Z M 81 81 " clip-rule="nonzero"></path>
    </clipPath>
    <clipPath id="e8f4d3e847">
      <path d="M 405 81 C 226.058594 81 81 226.058594 81 405 C 81 583.941406 226.058594 729 405 729 C 583.941406 729 729 583.941406 729 405 C 729 226.058594 583.941406 81 405 81 Z M 405 81 " clip-rule="nonzero"></path>
    </clipPath>
  </defs>
  <g clip-path="url(#0f9437502f)">
    <g clip-path="url(#e8f4d3e847)">
      <path fill="#93a9d1" d="M 81 81 L 729 81 L 729 729 L 81 729 Z M 81 81 " fill-opacity="1" fill-rule="nonzero"></path>
    </g>
  </g>
  <g fill="#ffd3d4" fill-opacity="1">
    <g transform="translate(404.999983, 514.743157)">
      <g>
        <path d="M 214.199219 -30 L 214.199219 -10.199219 L 86.101562 -10.199219 L 86.101562 -30 Z M 50.699219 26.398438 L 86.101562 26.398438 L 86.101562 17.101562 L 214.199219 17.101562 L 214.199219 25.5 L 251.101562 25.5 L 251.101562 -57 L 50.699219 -57 Z M 130.800781 -120.898438 L 130.800781 -96.898438 L 99.898438 -96.898438 C 97.199219 -104.398438 92.398438 -113.398438 87.300781 -120.898438 Z M 209.101562 -120.898438 C 206.398438 -113.699219 202.5 -105 199.199219 -96.898438 L 167.699219 -96.898438 L 167.699219 -120.898438 Z M 235.800781 -96.898438 C 239.101562 -102.898438 242.398438 -109.199219 246 -116.699219 L 217.5 -120.898438 L 276.898438 -120.898438 L 276.898438 -146.699219 L 167.699219 -146.699219 L 167.699219 -159.601562 L 248.699219 -159.601562 L 248.699219 -184.800781 L 167.699219 -184.800781 L 167.699219 -197.398438 L 267.898438 -197.398438 L 267.898438 -223.199219 L 216.300781 -223.199219 C 221.101562 -230.398438 226.5 -238.800781 231.898438 -248.699219 L 194.101562 -254.699219 C 191.101562 -245.398438 184.800781 -232.800781 179.699219 -223.199219 L 105.300781 -223.199219 L 116.699219 -226.5 C 114.601562 -234.601562 108.601562 -246 102.898438 -254.101562 L 69.898438 -246 C 74.101562 -239.101562 78.300781 -230.699219 81 -223.199219 L 32.398438 -223.199219 L 32.398438 -197.398438 L 130.800781 -197.398438 L 130.800781 -184.800781 L 51.898438 -184.800781 L 51.898438 -159.601562 L 130.800781 -159.601562 L 130.800781 -146.699219 L 24 -146.699219 L 24 -120.898438 L 75.601562 -120.898438 L 52.800781 -116.101562 C 56.398438 -110.398438 60 -103.5 62.699219 -96.898438 L 14.101562 -96.898438 L 14.101562 -69.300781 L 286.199219 -69.300781 L 286.199219 -96.898438 Z M 235.800781 -96.898438 "></path>
      </g>
    </g>
  </g>
  <g fill="#fefff7" fill-opacity="1">
    <g transform="translate(121.883237, 514.743157)">
      <g>
        <path d="M 189 -167.699219 L 236.699219 -167.699219 C 232.199219 -136.800781 224.699219 -110.101562 213.898438 -87.300781 C 202.5 -110.699219 194.101562 -137.398438 188.398438 -166.199219 Z M 287.398438 -167.699219 L 287.398438 -200.699219 L 199.800781 -200.699219 C 204.300781 -216 207.898438 -231.898438 210.898438 -247.800781 L 175.800781 -254.101562 C 167.699219 -208.199219 153 -162.898438 131.699219 -132.601562 L 131.699219 -235.5 L 20.398438 -235.5 L 20.398438 -200.398438 L 96.300781 -200.398438 L 96.300781 -150 L 23.398438 -150 L 23.398438 -38.699219 C 23.398438 -27.300781 18.300781 -22.199219 12.300781 -19.5 C 18 -10.800781 24 7.5 25.800781 17.398438 C 34.800781 10.5 48.601562 3.601562 135.300781 -29.101562 C 133.5 -36.898438 131.398438 -51.898438 131.398438 -62.699219 L 59.398438 -37.800781 L 59.398438 -114.898438 L 131.699219 -114.898438 L 131.699219 -119.101562 C 138.898438 -111.898438 147.601562 -102.300781 151.5 -97.5 C 156.898438 -104.101562 162 -111.601562 166.800781 -119.699219 C 173.699219 -95.398438 182.101562 -72.898438 192.898438 -53.101562 C 176.398438 -33 155.398438 -17.101562 128.101562 -5.699219 C 135 2.101562 145.5 18.898438 148.800781 27.300781 C 175.5 14.699219 196.800781 -1.5 213.898438 -21.300781 C 229.199219 -2.699219 247.199219 12.898438 269.398438 24.300781 C 274.5 15 285.601562 0.898438 293.699219 -6.300781 C 270.300781 -16.5 251.398438 -32.398438 236.101562 -51.601562 C 254.699219 -83.101562 266.398438 -121.5 273.898438 -167.699219 Z M 287.398438 -167.699219 "></path>
      </g>
    </g>
  </g>
</svg>
