<?xml version="1.0" encoding="UTF-8"?><svg id="uuid-47bf3567-bc07-4750-a3c8-f0b18deb3c21" xmlns="http://www.w3.org/2000/svg" width="165.73" height="137.23" viewBox="0 0 165.73 137.23"><defs><style>.uuid-dbb95aee-850f-4dd2-b1e4-7269d9b644bd{fill:#ffd3d4;}.uuid-850e4c99-81e0-46fc-9634-6b38761a1fc0{fill:#93a9d1;}</style></defs><path class="uuid-dbb95aee-850f-4dd2-b1e4-7269d9b644bd" d="M79.45,126.74c-28.6,0-51.79-23.19-51.79-51.79,0-28.6,23.19-51.79,51.79-51.79,28.6,0,51.79,23.19,51.79,51.79h0c-.03,28.6-23.2,51.76-51.79,51.79Zm0-94.22c-23.44,0-42.44,19-42.44,42.44s19,42.44,42.44,42.44,42.44-19,42.44-42.44c0-23.44-19-42.45-42.44-42.48v.04Z"/><path class="uuid-850e4c99-81e0-46fc-9634-6b38761a1fc0" d="M81.26,81.91c3.66-1.36,5.53-5.42,4.17-9.09-.72-1.93-2.24-3.46-4.17-4.17l.57-26.57c-.24,.09-.47,.19-.7,.31-.94,.45-1.8,1.06-2.54,1.8-.38,.4-.71,.85-1,1.32-.74,1.21-1.15,2.59-1.21,4l-.39,19.23c-2.63,1.14-4.3,3.76-4.25,6.62,0,.7,.13,1.4,.35,2.06,0,.08,0,.17,.08,.25h0l.06,.14c1.39,3.6,5.41,5.42,9.03,4.1Z"/><path class="uuid-850e4c99-81e0-46fc-9634-6b38761a1fc0" d="M145,45.11c5.37-11.32,2.74-24.82-6.49-33.29,11.13,6.52,14.37,23.07,6.49,33.29Z"/><path class="uuid-850e4c99-81e0-46fc-9634-6b38761a1fc0" d="M37.48,4.74c-9.18,.9-17.35,6.19-21.92,14.2-1.48,2.68-2.56,5.55-3.22,8.54-.17-12.89,12.36-24.22,25.14-22.74Z"/><path class="uuid-dbb95aee-850f-4dd2-b1e4-7269d9b644bd" d="M29.09,48.99c5.26-13.05,16.22-22.96,29.74-26.88-5.96-9.54-18.52-12.44-28.05-6.48-9.54,5.96-12.44,18.52-6.48,28.05,1.27,2.04,2.9,3.83,4.79,5.3Z"/><path class="uuid-dbb95aee-850f-4dd2-b1e4-7269d9b644bd" d="M130.64,48.99c-5.26-13.05-16.22-22.96-29.74-26.88,5.96-9.54,18.52-12.44,28.05-6.48,9.54,5.96,12.44,18.52,6.48,28.05-1.27,2.04-2.9,3.83-4.79,5.3Z"/><path class="uuid-dbb95aee-850f-4dd2-b1e4-7269d9b644bd" d="M103.57,126.86l.18,.31c1.59,2.61,3.82,4.77,6.47,6.28,1.06,.59,2.19,1.06,3.35,1.4,2.18,.64,4.45,.9,6.71,.76,.55,0,1.1-.05,1.65-.15l-8.44-14.47c-3.1,2.29-6.42,4.26-9.92,5.87Z"/><path class="uuid-dbb95aee-850f-4dd2-b1e4-7269d9b644bd" d="M55.33,126.86l-.18,.31c-1.58,2.61-3.8,4.77-6.45,6.28-1.06,.59-2.18,1.06-3.35,1.4-2.17,.64-4.44,.9-6.7,.76-.56,0-1.11-.08-1.66-.15l8.44-14.47c3.09,2.29,6.41,4.25,9.9,5.87Z"/><path class="uuid-850e4c99-81e0-46fc-9634-6b38761a1fc0" d="M153.75,32.93c0-6.79-.71-10.15-3.64-16.27,5,4.82,6.1,9.76,3.64,16.27Z"/><path class="uuid-850e4c99-81e0-46fc-9634-6b38761a1fc0" d="M22.15,3.24c-5.92,3.32-8.45,5.62-12.37,11.18,1.72-6.75,5.49-10.11,12.37-11.18Z"/></svg>