<?xml version="1.0" encoding="UTF-8"?><svg id="Layer_1" xmlns="http://www.w3.org/2000/svg" viewBox="0 0 165.73 137.23"><defs><style>.cls-1{fill:#ffd3d4;}.cls-2{fill:#93a9d1;}</style></defs><path class="cls-1" d="M83.23,81.32c-.84,.36-1.68,.75-2.5,1.17-3.37,1.69-6.41,3.96-9,6.7-1.38,1.47-2.6,3.09-3.63,4.83-2.53,4.39-3.91,9.35-4,14.41v25h19.13v-52.11Z"/><path class="cls-1" d="M58.48,98.79c-.84,.36-1.67,.75-2.5,1.17-3.37,1.69-6.41,3.96-9,6.7-1.39,1.47-2.61,3.09-3.63,4.83-2.54,4.39-3.92,9.35-4,14.42v7.56h19.14v-34.68Z"/><path class="cls-1" d="M107.98,54.2c-.84,.36-1.68,.75-2.5,1.17-3.37,1.69-6.41,3.96-9,6.7-1.38,1.47-2.6,3.09-3.63,4.83-2.54,4.39-3.91,9.35-4,14.42v52.15h19.14V54.2Z"/><path class="cls-1" d="M132.73,29.88c-.85,.36-1.68,.75-2.5,1.17-3.37,1.69-6.41,3.96-9,6.7-1.38,1.47-2.6,3.09-3.63,4.83-2.54,4.39-3.91,9.35-4,14.42v76.47h19.13V29.88Z"/><path class="cls-2" d="M123.71,2.2c-7-.67-13.53,4-14.2,11-.41,4.65,1.89,9.13,5.9,11.52l-12.09,22.78h-21.13l-19.84,37.39h-21.13l-20.66,38.85c-.75,1.42-.21,3.17,1.21,3.93,1.42,.75,3.17,.21,3.92-1.21l19-35.84h21.13l19.84-37.38h21.13l14.13-26.62c.14,0,.28,.01,.41,.06,7.36,.7,13.34-4,14-11s-4.26-12.77-11.62-13.48Z"/></svg>