<?xml version="1.0" encoding="UTF-8"?><svg id="Layer_1" xmlns="http://www.w3.org/2000/svg" viewBox="0 0 161.76 128.57"><defs><style>.cls-1{fill:#ffd3d4;}.cls-2{fill:#93a9d1;}</style></defs><path class="cls-1" d="M12.43,80.9c-.06-.53-.12-1.06-.15-1.6-.14-2.18,.11-4.36,.72-6.45,.32-1.12,.78-2.21,1.35-3.23,1.44-2.56,3.51-4.71,6.02-6.24l1.23-.72,5.62,9.57-14.78,8.68Z"/><path class="cls-1" d="M27.36,106.33c.43,.31,.87,.62,1.32,.91,1.84,1.18,3.86,2.03,5.99,2.53,1.14,.26,2.3,.39,3.47,.39,2.94-.01,5.82-.77,8.38-2.21l1.23-.72-5.62-9.57-14.78,8.68Z"/><path class="cls-1" d="M0,92.75c.84,.62,1.71,1.21,2.62,1.77,3.62,2.34,7.62,4.03,11.82,5,2.26,.51,4.56,.77,6.87,.78,5.81-.04,11.51-1.55,16.57-4.39l2.41-1.42-11.09-18.89L0,92.75Z"/><path class="cls-1" d="M96.36,108.28c1.65-2.99,2.96-6.15,3.92-9.42,1.78-6.1,2.48-12.47,2.07-18.81l-.03-.3-41.47,24.35,14.36,24.46,3.6-2.11c7.3-4.47,13.33-10.73,17.55-18.18Z"/><circle class="cls-1" cx="96.33" cy="48.74" r="14.75"/><path class="cls-1" d="M72.16,28.39l-.25-.18c-5.34-3.44-11.24-5.93-17.44-7.35-3.32-.76-6.72-1.15-10.13-1.16-8.56,.05-16.96,2.28-24.42,6.47l-3.6,2.11,14.37,24.48,41.46-24.36Z"/><path class="cls-2" d="M141.41,56.76c6.21-3.9,11.35-9.29,14.95-15.68,1.45-2.65,2.62-5.44,3.47-8.34,1.56-5.31,2.18-10.85,1.84-16.37-.06-1.32-.19-2.66-.36-3.99l-.21-1.67-1.36-1.01c-1.08-.79-2.19-1.54-3.31-2.26-4.65-3.01-9.79-5.18-15.18-6.41-2.94-.67-5.95-1.01-8.97-1.03-7.33,.04-14.54,1.9-20.98,5.42h0L24.14,56.59l30.16,51.36,87.13-51.16-.02-.04Zm-9.15-48.85c2.44,.01,4.88,.29,7.26,.84,4.49,1.05,8.76,2.88,12.62,5.41l1.45,.96c.05,.57,.1,1.16,.12,1.73,.33,4.6-.15,9.23-1.43,13.66-.69,2.35-1.63,4.61-2.81,6.75h0c-2.91,5.17-7.05,9.54-12.06,12.72L115.26,12.26c5.22-2.83,11.06-4.32,16.99-4.34ZM57.1,97.16l-22.18-37.77L108.45,16.22l22.18,37.77L57.1,97.16Z"/></svg>